<svg xmlns="http://www.w3.org/2000/svg" width="26.5" height="29"><path d="M26.328 2.22q-.455.987-1.1 2.614t-1.365 3.5q-.719 1.874-1.418 3.807t-1.27 3.483q-.57 1.554-1.288 3.523a7.592 7.592 0 0 1-.682 1.23 1.288 1.288 0 0 1-1.138.55h-13.1a1.419 1.419 0 0 1-1.193-.569 3.651 3.651 0 0 1-.625-1.212L.082 7.671a1.62 1.62 0 0 1 .132-1.287 1.907 1.907 0 0 1 1.684-.53h19.314L23.486.932a1.454 1.454 0 0 1 .946-.873 1.661 1.661 0 0 1 1.134.1 1.717 1.717 0 0 1 .816.794 1.379 1.379 0 0 1-.054 1.267zM9.288 26.269A2.724 2.724 0 0 1 6.561 29a2.676 2.676 0 0 1-1.97-.8 2.627 2.627 0 0 1-.795-1.93 2.7 2.7 0 0 1 .795-1.951 2.645 2.645 0 0 1 1.97-.814 2.593 2.593 0 0 1 1.928.814 2.7 2.7 0 0 1 .799 1.95zm9.5 0A2.715 2.715 0 0 1 16.066 29a2.675 2.675 0 0 1-1.97-.8 2.628 2.628 0 0 1-.8-1.93 2.7 2.7 0 0 1 .8-1.951 2.643 2.643 0 0 1 1.97-.814 2.605 2.605 0 0 1 1.932.814 2.7 2.7 0 0 1 .794 1.95z" fill="#79b260" fill-rule="evenodd"/></svg>